<svg width="26" height="16" xmlns="http://www.w3.org/2000/svg">
 <title>Fur Affinity icon</title>

 <g>
  <title>background</title>
  <rect fill="none" id="canvas_background" height="18" width="28" y="-1" x="-1"/>
 </g>
 <g>
  <title>Layer 1</title>
  <path id="svg_1" d="m17.883499,1.320503l-0.26,1.992l2.435,0.717l0.031,2.152l2.231,0.041l-0.056,2.255l2.171,-0.141c0.003,-0.759 0.05,-5.045 0.626,-7.016l-7.178,0zm-5.465,13.107c0.056,-0.213 0,-0.906 0,-1.146l-0.049,-1.463c-2.021,-0.085 -4.2,0.322 -4.2,2.187c0,0.403 0.169,0.768 0.426,1.049l3.312,0c0.248,-0.142 0.434,-0.335 0.511,-0.627zm9.033,-5.174l0.052,-2.247l-2.202,-0.04l-0.035,-2.425l-2.527,-0.861l0.338,-2.36l-9.43,0c-3.818,0 -6.585,3.252 -6.585,6.817l0,6.916l4.116,0a5.381,5.381 0 0 1 -0.023,-0.754c0.148,-3.665 4.199,-4.294 7.241,-4.204l0,-1.056c-0.05,-0.852 -0.74,-1.605 -2.74,-1.605c-1.333,0 -2.915,0.171 -3.939,0.541l0.272,-2.384c0.978,-0.277 2.08,-0.545 4.453,-0.545c4.572,0 5.077,2.029 5.04,4.383l-0.021,5.624l2.479,0l0,-0.002l0.096,0.002c3.303,0 6.021,-2.692 6.362,-5.915l-2.947,0.115z" fill="#E2E7ED"/>
 </g>
</svg>