<svg xmlns="http://www.w3.org/2000/svg" xmlns:xlink="http://www.w3.org/1999/xlink" preserveAspectRatio="xMidYMid" width="1015" height="436.688" viewBox="0 0 1015 436.688">
  <defs>
    <style>
      .cls-1 {
        fill: #E2E7ED;
        fill-rule: evenodd;
      }

      .day-mode .cls-1 {
        fill: #34373D;
      }
    </style>
  </defs>
  <path d="M944.651,436.687 C974.528,406.808 989.467,371.242 989.467,329.989 L989.467,250.245 C989.467,233.765 984.444,219.810 974.396,208.379 C964.348,196.951 952.359,191.234 938.431,191.234 C924.501,191.234 912.594,196.923 902.706,208.299 C892.498,219.783 887.395,233.713 887.395,250.085 L887.395,334.774 L861.877,334.774 L861.877,165.716 L887.395,165.716 L887.395,185.652 C883.353,191.075 882.291,192.724 884.205,190.596 C899.197,174.009 917.271,165.716 938.431,165.716 C959.588,165.716 977.638,173.984 992.577,190.516 C1007.515,207.051 1014.986,226.960 1014.986,250.245 L1014.986,329.989 C1014.986,385.491 991.541,421.057 944.651,436.687 ZM733.807,350.244 L657.253,252.637 L621.846,283.738 L621.846,335.731 L596.328,335.731 L596.328,107.662 C596.328,66.409 581.388,30.843 551.512,0.964 C598.401,16.594 621.846,52.160 621.846,107.662 L621.846,249.766 L734.605,151.043 L751.351,170.341 L676.391,235.891 L754.062,334.455 C779.473,366.883 813.125,385.596 855.018,390.595 C835.028,397.824 821.366,401.440 814.030,401.440 C787.340,401.440 760.601,384.375 733.807,350.244 ZM822.164,334.774 C816.527,334.774 811.663,332.726 807.571,328.634 C803.476,324.542 801.430,319.677 801.430,314.040 L801.430,191.234 L785.481,191.234 L785.481,165.716 L826.948,165.716 L826.948,298.092 C826.948,308.194 827.905,313.243 829.819,313.243 C830.988,313.243 835.347,310.160 842.897,303.993 C842.897,316.328 840.876,324.542 836.837,328.634 C832.795,332.726 827.905,334.774 822.164,334.774 ZM784.525,135.732 L793.296,100.964 L828.065,109.576 L819.293,144.345 L784.525,135.732 ZM537.317,300.165 C537.210,300.484 534.392,303.674 528.864,309.734 C513.872,326.428 495.795,334.774 474.638,334.774 C453.478,334.774 435.429,326.508 420.492,309.973 C405.552,293.441 398.084,273.530 398.084,250.245 L398.084,165.716 L423.602,165.716 L423.602,250.245 C423.602,266.727 428.626,280.682 438.673,292.111 C448.721,303.542 460.708,309.256 474.638,309.256 C488.566,309.256 500.555,303.542 510.603,292.111 C520.651,280.682 525.674,266.727 525.674,250.245 L525.674,165.716 L551.193,165.716 L551.193,234.296 C551.193,275.551 566.130,311.117 596.009,340.994 C562.621,329.830 543.059,316.221 537.317,300.165 ZM308.451,436.687 C338.328,406.808 353.267,371.242 353.267,329.989 L353.267,250.245 C353.267,233.765 348.243,219.810 338.196,208.379 C328.148,196.951 316.159,191.234 302.231,191.234 C288.301,191.234 276.394,196.923 266.505,208.299 C256.298,219.783 251.195,233.713 251.195,250.085 L251.195,334.774 L225.676,334.774 L225.676,106.705 C225.676,65.452 210.737,29.887 180.860,0.007 C227.750,15.637 251.195,51.203 251.195,106.705 L251.195,185.652 C247.153,191.075 246.091,192.724 248.005,190.596 C262.997,174.009 281.071,165.716 302.231,165.716 C323.388,165.716 341.438,173.984 356.377,190.516 C371.314,207.051 378.785,226.960 378.785,250.245 L378.785,329.989 C378.785,385.491 355.341,421.057 308.451,436.687 ZM184.369,175.285 L157.894,175.285 C159.170,169.225 159.808,164.973 159.808,162.526 C159.808,152.745 156.404,144.452 149.600,137.646 C142.795,130.843 134.501,127.439 124.720,127.439 C115.044,127.439 106.778,130.843 99.920,137.646 C93.062,144.452 89.633,152.745 89.633,162.526 C89.633,172.310 93.062,180.603 99.920,187.406 C106.778,194.212 115.044,197.614 124.720,197.614 C143.859,197.721 160.019,204.419 173.205,217.709 C186.602,231.106 193.300,247.270 193.300,266.194 C193.300,285.121 186.627,301.281 173.284,314.678 C159.940,328.075 143.752,334.774 124.720,334.774 C105.793,334.774 89.633,328.075 76.236,314.678 C62.839,301.281 56.140,285.121 56.140,266.194 C56.140,248.226 37.425,239.136 0.000,238.921 C26.794,229.990 40.829,225.524 42.105,225.524 C39.658,220.954 29.451,209.575 11.483,191.394 C57.416,206.812 80.806,230.895 81.658,263.642 L81.658,266.194 C81.658,278.103 85.885,288.258 94.338,296.656 C102.790,305.057 112.918,309.256 124.720,309.256 C136.627,309.256 146.782,305.057 155.182,296.656 C163.581,288.258 167.782,278.103 167.782,266.194 C167.782,254.287 163.581,244.132 155.182,235.731 C146.782,227.333 136.627,223.132 124.720,223.132 C108.026,223.132 93.752,217.206 81.897,205.349 C70.040,193.494 64.114,179.220 64.114,162.526 C64.114,145.835 70.040,131.561 81.897,119.704 C93.752,107.849 108.026,101.921 124.720,101.921 C141.519,101.921 155.820,107.849 167.623,119.704 C179.425,131.561 185.326,145.835 185.326,162.526 C185.326,165.504 185.007,169.758 184.369,175.285 Z" class="cls-1 shukin-path"/>
</svg>
