<svg width="443" height="361" xmlns="http://www.w3.org/2000/svg">
 <!-- Created with Method Draw - http://github.com/duopixel/Method-Draw/ -->
  <defs>
   <style>.cls-1{fill:none;}.cls-2{fill:#E2E7ED;}</style>
  </defs>
  <path stroke="null" id="svg_6" d="m136.319821,358.91122c166.143208,0 257.016534,-137.648433 257.016534,-257.016534c0,-3.909666 0,-7.801722 -0.264167,-11.676166a183.78954,183.78954 0 0 0 45.06683,-46.757496a180.302541,180.302541 0 0 1 -51.882329,14.212165a90.644381,90.644381 0 0 0 39.713052,-49.962718a181.024596,181.024596 0 0 1 -57.359384,21.925832a90.415437,90.415437 0 0 0 -153.93871,82.384771a256.452979,256.452979 0 0 1 -186.16704,-94.377937a90.397826,90.397826 0 0 0 27.966442,120.583268a89.658159,89.658159 0 0 1 -40.998663,-11.306332c0,0.369833 0,0.757278 0,1.144722a90.362604,90.362604 0 0 0 72.469716,88.548659a90.186493,90.186493 0 0 1 -40.78733,1.549778a90.433048,90.433048 0 0 0 84.392437,62.730773a181.253541,181.253541 0 0 1 -112.182769,38.744441a183.877596,183.877596 0 0 1 -21.503165,-1.303222a255.730923,255.730923 0 0 0 138.458544,40.505552" class="cls-2"/>
</svg>